<?xml version="1.0" encoding="utf-8"?>
<!-- Generator: Adobe Illustrator 17.0.0, SVG Export Plug-In . SVG Version: 6.00 Build 0)  -->
<!DOCTYPE svg PUBLIC "-//W3C//DTD SVG 1.1//EN" "http://www.w3.org/Graphics/SVG/1.1/DTD/svg11.dtd">
<svg version="1.1" id="Capa_1" xmlns="http://www.w3.org/2000/svg" xmlns:xlink="http://www.w3.org/1999/xlink" x="0px" y="0px"
	 width="1191.45px" height="1188.9px" viewBox="0 0 1191.45 1188.9" enable-background="new 0 0 1191.45 1188.9"
	 xml:space="preserve">
<g>
	<defs>
		<rect id="SVGID_1_" y="0.002" width="1191.451" height="1188.898"/>
	</defs>
	<clipPath id="SVGID_2_">
		<use xlink:href="#SVGID_1_"  overflow="visible"/>
	</clipPath>
	<path clip-path="url(#SVGID_2_)" fill="#D6D6D6" d="M550.919,784.21l14.913-26.235l-3.148-6.773
		c-4.848-8.199-4.848-8.199-12.901-21.438l27.918,27.664L550.919,784.21"/>
	<polygon clip-path="url(#SVGID_2_)" fill="#D6D6D6" points="556.82,761.069 556.833,754.46 558.062,756.724 558.057,758.887 	"/>
	<polygon clip-path="url(#SVGID_2_)" fill="#D6D6D6" points="553.741,766.491 553.785,748.837 555.014,751.101 554.978,764.308 	"/>
	<polygon clip-path="url(#SVGID_2_)" fill="#D6D6D6" points="550.652,771.901 550.725,743.205 551.954,745.469 551.889,769.719 	"/>
	<polygon clip-path="url(#SVGID_2_)" fill="#D6D6D6" points="547.563,777.312 547.677,737.582 548.906,739.846 548.811,775.139 	"/>
	<polygon clip-path="url(#SVGID_2_)" fill="#D6D6D6" points="545.078,781.688 544.492,781.102 544.633,733.29 545.094,732.829 
		545.922,734.353 545.721,780.552 	"/>
	<path clip-path="url(#SVGID_2_)" fill="#D6D6D6" d="M542.653,779.264l-1.223-1.223l0.18-41.727c0.35-0.35,0.662-0.757,1.175-1.175
		L542.653,779.264"/>
	<path clip-path="url(#SVGID_2_)" fill="#D6D6D6" d="M539.602,776.213l-1.233-1.233l0.078-35.503
		c0.616-0.617,0.616-0.617,1.344-1.344L539.602,776.213"/>
	<polygon clip-path="url(#SVGID_2_)" fill="#D6D6D6" points="536.529,773.141 535.306,771.918 535.376,742.547 536.615,741.308 	"/>
	<polygon clip-path="url(#SVGID_2_)" fill="#D6D6D6" points="533.468,770.079 532.245,768.856 532.3,745.624 533.538,744.386 	"/>
	<polygon clip-path="url(#SVGID_2_)" fill="#D6D6D6" points="530.406,767.018 529.173,765.785 529.221,748.702 530.459,747.464 	"/>
	<polygon clip-path="url(#SVGID_2_)" fill="#D6D6D6" points="527.345,763.956 526.112,762.723 526.144,751.78 527.382,750.542 	"/>
	<polygon clip-path="url(#SVGID_2_)" fill="#D6D6D6" points="524.283,760.894 523.05,759.661 523.066,754.858 524.304,753.62 	"/>
	<polygon clip-path="url(#SVGID_2_)" fill="#D6D6D6" points="521.221,757.832 520.656,757.268 521.226,756.697 	"/>
</g>
</svg>
